<?xml version="1.0"?><svg id="Layer_1" style="enable-background:new 0 0 30 30;" version="1.1" viewBox="0 0 30 30" xml:space="preserve" xmlns="http://www.w3.org/2000/svg" xmlns:xlink="http://www.w3.org/1999/xlink"><style type="text/css">
	.st0{fill:#BF976B;}
	.st1{fill:#39B54A;}
	.st2{fill:#AF8961;}
	.st3{fill:#8C6239;}
	.st4{fill:#009245;}
	.st5{fill:#28AF35;}
</style><g><path class="st0" d="M13.761,20.01c0,0-1.487,6.238,5.494,7.188c0,0,2.727-0.124,1.157-3.594   C20.412,23.604,17.562,15.631,13.761,20.01z"/><path class="st1" d="M13.761,12.512c0,0-3.346-5.391-8.861-2.665c0,0-2.479-0.486-3.842-0.77   C1.058,9.078,5.812,17.467,13.761,12.512z"/><path class="st1" d="M18.347,10.674c0,0-1.529-4.503,6.734-7.271l2.396-2.293c0,0,0.95,5.639-4.999,9.233   C22.478,10.343,19.751,11.665,18.347,10.674z"/><path class="st1" d="M15.372,7.183c0,0,1.549-5.515-5.825-6.073C9.547,1.11,11.592,7.782,15.372,7.183z"/><path class="st2" d="M18.235,19.849c0,0,2.738,7.04-0.971,6.864C17.264,26.713,24.279,28.982,18.235,19.849z"/><path class="st0" d="M13.1,19.556l0.528,1.198c0,0-0.404,4.833,4.223,6.445c0,0-2.52,2.107-5.99-3.429   C11.861,23.77,11.365,20.96,13.1,19.556z"/><path class="st3" d="M13.56,19.747c0,0-0.746-0.054-0.919,2.095c-0.152,1.885,1.345,4.607,4.74,5.607   C17.381,27.449,11.882,22.669,13.56,19.747z"/><path class="st4" d="M26.264,4.381c0,0-1.762,4.062-7.918,6.292c0,0,5.644,3.025,8.764-6.217l0.139-2.665L26.264,4.381z"/><path class="st4" d="M5.024,11.578c2.063,0.176,1.978-0.677,8.133,1.553c0,0-4.818,4.153-11.366-3.514L0.841,9.29   C0.841,9.29,3.836,11.476,5.024,11.578z"/><path class="st5" d="M10.084,1.273c0,0,3.338,1.978,5.155,5.531C15.24,6.804,16.083,1.029,10.084,1.273z"/><path d="M29.276,26.743c-0.138-0.173-0.388-0.198-0.557-0.063c-0.484,0.385-0.927,0.545-1.303,0.479   c-0.336-0.06-0.63-0.294-0.887-0.589c-0.004-0.005-0.009-0.009-0.013-0.014c-0.266-0.309-0.492-0.684-0.683-1   c-0.111-0.184-0.211-0.349-0.302-0.476c-0.507-0.714-1.13-1.085-1.85-1.104c-0.927,0.003-1.792,0.586-2.379,1.097   c-0.092-0.632-0.357-1.415-0.821-2.424l-0.203-0.446c-1.026-2.261-2.087-4.596-5.152-3.805c-0.614,0.159-1.082,0.48-1.413,0.938   c-0.351-1.366,0.727-3.031,1.802-4.273c0.728-0.842,1.18-1.646,1.431-2.414c0.021-0.011,0.046-0.007,0.065-0.023l1.445-1.15   c0.299,0.063,0.599,0.103,0.897,0.103c2.293,0,4.433-1.662,4.523-1.733c4.292-2.998,4.007-8.509,3.992-8.742   c-0.011-0.17-0.129-0.315-0.293-0.359c-0.166-0.045-0.34,0.022-0.434,0.165c-0.016,0.025-1.688,2.522-4.223,3.156   c-2.863,0.716-4.206,2.914-4.549,4.1c-0.281,0.976-0.478,2.537-0.507,2.769l-0.682,0.543c0.12-1.603-0.581-3.036-1.428-4.309   c0.703-1.838-0.593-3.738-0.637-3.8c-1.807-2.976-5.975-2.746-6.15-2.736c-0.17,0.011-0.314,0.129-0.358,0.294   C8.561,1.091,8.627,1.266,8.769,1.36c0.016,0.011,1.615,1.09,1.805,2.722c0.237,2.031,1.785,2.972,2.662,3.207   c0.581,0.156,1.469,0.269,1.85,0.313c1.141,1.713,1.726,3.303,1.017,5.073c-0.035-0.017-0.071-0.034-0.111-0.039l-1.7-0.24   c-0.143-0.186-1.104-1.431-1.842-2.129c-0.897-0.849-3.168-2.059-5.998-1.226C3.945,9.783,1.236,8.477,1.209,8.464   C1.054,8.388,0.871,8.42,0.752,8.541C0.632,8.663,0.603,8.848,0.681,9c0.106,0.208,2.655,5.102,7.852,5.505   c0.051,0.007,0.478,0.062,1.097,0.062c1.203,0,3.123-0.222,4.419-1.404l1.69,0.238c-0.218,0.371-0.486,0.75-0.824,1.141   c-1.633,1.888-2.118,3.325-2.072,4.39c-0.379,0.406-1.455,1.711-1.476,3.458c-0.015,1.291,0.55,2.514,1.68,3.636   c1.576,1.566,3.128,2.013,4.389,2.013c1.671,0,2.829-0.787,2.85-0.801c0.027-0.019,0.045-0.046,0.066-0.07   c0.181-0.098,0.349-0.212,0.491-0.351c0.12,0.392,0.322,0.831,0.626,1.326c0.075,0.122,0.205,0.19,0.338,0.19   c0.071,0,0.142-0.019,0.207-0.059c0.187-0.114,0.245-0.358,0.131-0.545c-0.666-1.088-0.674-1.612-0.605-1.805   c0.511-0.498,1.358-1.142,2.122-1.156c0.464,0.012,0.864,0.264,1.224,0.77c0.081,0.114,0.169,0.262,0.269,0.427   c0.177,0.294,0.394,0.648,0.659,0.978c-0.023,0.362-0.052,1.279,0.157,2.129c0.046,0.181,0.207,0.302,0.385,0.302   c0.031,0,0.063-0.004,0.095-0.012c0.213-0.053,0.343-0.268,0.29-0.48c-0.102-0.411-0.137-0.848-0.146-1.214   c0.207,0.129,0.432,0.226,0.681,0.271c0.105,0.018,0.21,0.028,0.317,0.028c0.521,0,1.065-0.224,1.621-0.668   C29.385,27.164,29.413,26.914,29.276,26.743z M19.13,8.386c0.295-1.022,1.465-2.921,3.978-3.55   c1.778-0.444,3.139-1.655,3.928-2.526c-0.155,1.716-0.83,4.939-3.634,6.898c-0.024,0.018-2.044,1.578-4.071,1.57l1.541-1.227   l2.25-0.383c0.216-0.037,0.361-0.242,0.324-0.458c-0.037-0.215-0.238-0.365-0.458-0.324l-0.83,0.142l1.817-1.446   c0.171-0.137,0.199-0.386,0.063-0.557c-0.136-0.173-0.387-0.199-0.557-0.063l-1.93,1.536l0.158-0.44   c0.075-0.206-0.032-0.433-0.238-0.508c-0.208-0.075-0.434,0.033-0.507,0.239l-0.595,1.65l-1.607,1.279   C18.849,9.647,18.978,8.91,19.13,8.386z M15.061,6.801c-0.408-0.049-1.146-0.15-1.619-0.277c-0.685-0.184-1.892-0.925-2.08-2.533   c-0.127-1.092-0.732-1.955-1.269-2.524c1.262,0.131,3.31,0.615,4.357,2.337C14.462,3.819,15.539,5.373,15.061,6.801z M9.26,11.438   l0.36,0.299l-2.443-0.345c-0.217-0.036-0.417,0.121-0.448,0.337c-0.03,0.217,0.121,0.418,0.337,0.448l2.3,0.325l-0.787,0.299   c-0.205,0.078-0.308,0.307-0.23,0.512c0.061,0.158,0.211,0.256,0.371,0.256c0.047,0,0.094-0.008,0.141-0.026l2.134-0.811   l1.951,0.275c-1.743,1.035-4.279,0.716-4.327,0.71c-3.394-0.264-5.607-2.699-6.61-4.1c1.122,0.351,2.91,0.703,4.667,0.185   c2.482-0.732,4.454,0.309,5.228,1.041c0.397,0.376,0.882,0.945,1.246,1.392l-2.035-0.287l-1.349-1.12   c-0.168-0.139-0.417-0.117-0.558,0.052C9.068,11.048,9.091,11.298,9.26,11.438z M13.605,25.463   c-0.97-0.962-1.456-1.991-1.446-3.056c0.011-1.059,0.511-1.95,0.903-2.489c0.062,0.147,0.133,0.284,0.212,0.409   c-0.211,0.914-0.086,2.086,0.396,3.512c0.55,1.629,1.952,2.811,3.317,3.396C15.991,27.129,14.818,26.669,13.605,25.463z    M20.464,26.009c-0.167,0.373-0.618,0.574-1.341,0.796c-1.104,0.344-3.92-0.906-4.701-3.219c-0.539-1.598-0.605-2.847-0.191-3.612   c0.223-0.412,0.58-0.676,1.093-0.808c0.343-0.089,0.652-0.132,0.934-0.132c1.614,0,2.34,1.39,3.297,3.496l0.205,0.449   C20.462,24.507,20.693,25.498,20.464,26.009z"/></g></svg>